<?xml version="1.0" encoding="UTF-8"?> <svg xmlns="http://www.w3.org/2000/svg" xmlns:xlink="http://www.w3.org/1999/xlink" width="114px" height="48px" viewBox="0 0 114 48" version="1.1"><title>570BC6AF-81B5-4456-9CFB-003118910448</title><g id="Service" stroke="none" stroke-width="1" fill="none" fill-rule="evenodd"><g id="Digital-Infrastructure-xxl-≥1400px" transform="translate(-55.000000, -20.000000)" fill-rule="nonzero"><g id="Brillio_Primary-Logo_12.2021" transform="translate(55.000000, 20.000000)"><path d="M11.8251656,37 C8.10596026,37 4.25960265,36.4370245 1.49403974,35.7489434 C0.190728477,35.4674556 0,35.123415 0,34.3727811 L0,0.938292477 C0,0.406593407 0.476821192,0 1.01721854,0 L6.86622517,0 C7.40662252,0 7.85165563,0.437869822 7.85165563,0.938292477 L7.85165563,9.19526627 C9.25033113,9.00760778 10.8715232,8.8512257 11.8251656,8.8512257 C20.0264901,8.8512257 24,13.5739645 24,21.0490279 L24,24.7709214 C23.9682119,32.4961961 19.6768212,37 11.8251656,37 M16.1165563,21.0490279 C16.1165563,17.7024514 15.2582781,15.2316145 11.7933775,15.2316145 C10.6172185,15.2316145 8.99602649,15.3254438 7.81986755,15.4818259 L7.81986755,30.3693998 C8.74172185,30.5257819 10.2039735,30.6508876 11.7933775,30.6508876 C15.2264901,30.6508876 16.1165563,28.1800507 16.1165563,24.8021978 L16.1165563,21.0490279 Z" id="Shape" fill="#000000"></path><path d="M41.3096234,15.4542373 C39.6150628,15.580791 36.539749,16.1819209 34.751046,17.1310734 L34.751046,35.9875706 C34.751046,36.5254237 34.3117155,37 33.7782427,37 L28.0041841,37 C27.4707113,37 27,36.5254237 27,35.9875706 L27,12.9231638 C27,12.3853107 27.4707113,12.1954802 27.9414226,11.9740113 C30.9539749,10.5186441 36.2259414,9 41.0585774,9 C41.5920502,9 42,9.44293785 42,9.94915254 L42,14.5367232 C42,14.9480226 41.7175732,15.3909605 41.3096234,15.4542373" id="Path" fill="#000000"></path><path d="M51.0283401,37 L45.0040486,37 C44.4534413,37 44,36.5665138 44,36.0711009 L44,10.9288991 C44,10.4025229 44.4534413,10 45.0040486,10 L51.0283401,10 C51.5789474,10 52,10.4334862 52,10.9288991 L52,36.0711009 C52,36.5665138 51.5789474,37 51.0283401,37" id="Path" fill="#000000"></path><path d="M63.0607287,37 L57.0364372,37 C56.48583,37 56,36.5252352 56,35.9871685 L56,0.949529512 C56,0.411462789 56.48583,0 57.0364372,0 L63.0607287,0 C63.611336,0 64,0.443113772 64,0.949529512 L64,35.9871685 C64,36.5252352 63.611336,37 63.0607287,37" id="Path" fill="#000000"></path><path d="M74.0607287,37 L68.0364372,37 C67.48583,37 67,36.5252352 67,35.9871685 L67,0.949529512 C67,0.411462789 67.48583,0 68.0364372,0 L74.0607287,0 C74.611336,0 75,0.443113772 75,0.949529512 L75,35.9871685 C75,36.5252352 74.611336,37 74.0607287,37" id="Path" fill="#000000"></path><path d="M85.9959514,37 L79.9716599,37 C79.4210526,37 79,36.5665138 79,36.0711009 L79,10.9288991 C79,10.4025229 79.4534413,10 79.9716599,10 L85.9959514,10 C86.5465587,10 87,10.4334862 87,10.9288991 L87,36.0711009 C86.9676113,36.5665138 86.51417,37 85.9959514,37" id="Path" fill="#000000"></path><path d="M102.031414,37 C94.2722513,37 90,32.2035595 90,24.6662959 L90,21.3337041 C90,13.7964405 94.2722513,9 102.031414,9 C109.790576,9 114,13.7964405 114,21.3337041 L114,24.6662959 C114,32.2035595 109.790576,37 102.031414,37 M106.303665,21.3337041 C106.303665,17.5027809 104.827225,15.5406007 102.031414,15.5406007 C99.2670157,15.5406007 97.7277487,17.4716352 97.7277487,21.3337041 L97.7277487,24.6662959 C97.7277487,28.4972191 99.2670157,30.4905451 102.031414,30.4905451 C104.795812,30.4905451 106.303665,28.4972191 106.303665,24.6662959 L106.303665,21.3337041 Z" id="Shape" fill="#000000"></path><path d="M64,43.4998283 C64,41.0203311 61.9795918,39 59.5,39 C57.0204082,39 55,41.0203311 55,43.4998283 C55,45.9793256 57.0204082,47.9996567 59.5,47.9996567 C61.9795918,48.0302678 64,46.0099367 64,43.4998283" id="Path" fill="#2CC84D"></path><path d="M76,43.4998283 C76,41.0203311 73.9795918,39 71.5,39 C69.0204082,39 67,41.0203311 67,43.4998283 C67,45.9793256 69.0204082,47.9996567 71.5,47.9996567 C73.9795918,48.0302678 76,46.0099367 76,43.4998283" id="Path" fill="#2CC84D"></path></g></g></g></svg> 